<svg width="140" height="40" viewBox="0 0 140 40" fill="none" xmlns="http://www.w3.org/2000/svg">
<g clip-path="url(#clip0_737_152)">
<path d="M41.1965 15.1533C40.3347 14.5994 39.1856 14.3224 37.7684 14.3224C36.3512 14.3224 35.0489 14.6587 33.8424 15.3511C32.9423 15.8654 32.2528 16.6172 31.6592 17.4876L32.521 8.68443C32.5976 7.91291 32.4635 7.31944 32.0996 6.92379C31.7358 6.52815 31.1995 6.33032 30.4718 6.33032C29.744 6.33032 29.1695 6.52815 28.7482 6.92379C28.3268 7.31944 28.0779 7.91291 28.0013 8.68443L25.818 30.8803C25.7414 31.6518 25.8755 32.2453 26.2202 32.6607C26.5649 33.0761 27.1011 33.2739 27.8289 33.2739C29.3418 33.2739 30.1845 32.4826 30.3377 30.8803L31.1421 22.6904C31.2761 21.266 31.7932 20.1384 32.655 19.268C33.5168 18.4174 34.6276 17.9822 35.949 17.9822C37.0407 17.9822 37.8067 18.2987 38.2663 18.9515C38.726 19.6043 38.8792 20.633 38.7451 22.0573L37.8833 30.8803C37.8067 31.6518 37.9408 32.2453 38.3046 32.6607C38.6685 33.0761 39.2048 33.2739 39.9325 33.2739C40.6603 33.2739 41.2348 33.0761 41.6561 32.6607C42.0774 32.2453 42.3264 31.6518 42.403 30.8803L43.3031 21.8397C43.4755 20.1384 43.3797 18.7537 43.035 17.6459C42.6903 16.538 42.0774 15.7072 41.2156 15.1533H41.1965Z" fill="#EE7628"/>
<path d="M50.6955 6.05347C49.8529 6.05347 49.1634 6.27107 48.6655 6.6865C48.1675 7.10193 47.8611 7.71519 47.7845 8.52627C47.7079 9.33734 47.8803 9.91103 48.3016 10.3462C48.7229 10.7815 49.3549 10.9991 50.2167 10.9991C51.0785 10.9991 51.768 10.7815 52.2659 10.3462C52.7639 9.91103 53.0511 9.29778 53.1277 8.52627C53.2043 7.75475 53.032 7.12172 52.6298 6.6865C52.2085 6.27107 51.5765 6.05347 50.6955 6.05347Z" fill="#EE7628"/>
<path d="M49.872 14.4609C49.1443 14.4609 48.5697 14.6785 48.1484 15.1138C47.7271 15.549 47.4589 16.182 47.3823 16.9931L46.0226 30.7023C45.946 31.4936 46.0801 32.1266 46.4248 32.5618C46.7695 33.0168 47.3057 33.2344 48.0143 33.2344C48.7229 33.2344 49.3549 33.0168 49.7763 32.5618C50.1976 32.1068 50.4657 31.4936 50.5423 30.7023L51.902 16.9931C51.9786 16.1622 51.8446 15.549 51.4999 15.1138C51.136 14.6785 50.5998 14.4609 49.8912 14.4609H49.872Z" fill="#EE7628"/>
<path d="M70.3831 15.4897C69.2915 14.7182 67.97 14.3225 66.4188 14.3225C64.8675 14.3225 63.5844 14.7182 62.3779 15.4897C61.516 16.0436 60.8457 16.736 60.3478 17.547L60.4244 16.7557C60.501 15.9842 60.367 15.3908 60.0222 14.9951C59.6775 14.5995 59.1413 14.4016 58.4135 14.4016C57.6858 14.4016 57.1496 14.5995 56.7282 14.9951C56.3069 15.3908 56.0579 15.9842 55.9813 16.7557L53.913 37.646C53.8364 38.4175 53.9704 39.0109 54.3152 39.4066C54.6599 39.8022 55.1961 40.0001 55.9239 40.0001C56.6516 40.0001 57.2262 39.8022 57.6666 39.4066C58.1071 39.0109 58.3561 38.4175 58.4327 37.646L59.1796 30.0891C59.5243 30.9199 60.0031 31.6519 60.7691 32.2058C61.8033 32.9575 63.0481 33.3532 64.5228 33.3532C66.0932 33.3532 67.4912 32.9773 68.7169 32.186C69.9426 31.4145 70.9576 30.3067 71.762 28.8824C72.5472 27.458 73.0451 25.7567 73.2366 23.8181C73.4281 21.8794 73.2749 20.1583 72.7578 18.7538C72.2408 17.3492 71.4364 16.2612 70.3448 15.4897H70.3831ZM68.1232 27.1217C67.6253 28.0119 66.9933 28.6647 66.2273 29.1197C65.4612 29.5747 64.5994 29.7923 63.6418 29.7923C62.1863 29.7923 61.0947 29.278 60.3095 28.2691C59.5435 27.2602 59.2562 25.7765 59.4669 23.7983C59.6009 22.4729 59.9265 21.3848 60.4244 20.4946C60.9224 19.6044 61.5543 18.9516 62.3204 18.5164C63.0864 18.0812 63.9483 17.8636 64.9058 17.8636C66.3613 17.8636 67.4529 18.3581 68.2381 19.3472C69.0042 20.3364 69.2915 21.82 69.0808 23.8181C68.9467 25.1435 68.6212 26.2315 68.1232 27.1217Z" fill="#EE7628"/>
<path d="M94.6477 24.8863C94.7818 24.3324 95.0499 21.5826 94.3796 19.7033C93.9966 18.6153 92.3113 14.3423 86.1829 14.3423C84.4784 14.3423 82.908 14.7379 81.4908 15.549C80.0736 16.3601 78.9054 17.4679 78.0053 18.8922C77.1052 20.3166 76.5689 21.9585 76.3774 23.8576C76.1859 25.7567 76.4157 27.4778 77.0477 28.9021C77.6988 30.3265 78.6947 31.4145 80.0736 32.186C81.4525 32.9575 83.1378 33.3532 85.1295 33.3532C86.068 33.3532 87.1021 33.2147 88.2321 32.9575C89.362 32.7003 90.3578 32.2849 91.2579 31.7508C91.7176 31.4738 92.0623 31.1573 92.273 30.7815C92.4836 30.4056 92.5985 30.0495 92.5794 29.6736C92.5602 29.2978 92.4645 29.001 92.2538 28.7636C92.0432 28.5065 91.7559 28.368 91.3729 28.3284C90.9898 28.2889 90.5302 28.4273 89.994 28.7241C89.2471 29.1197 88.481 29.3967 87.6958 29.5549C86.8915 29.7132 86.1829 29.7923 85.5509 29.7923C83.7506 29.7923 82.4292 29.278 81.5866 28.2691C80.9354 27.4778 80.6098 26.3304 80.5907 24.8863C80.5907 24.8863 94.2073 24.8665 94.6286 24.8665L94.6477 24.8863ZM83.3868 18.5559C84.1528 18.1009 85.0338 17.8833 86.0488 17.8833C90.3961 17.8833 90.9324 21.4046 90.8749 22.2157H80.8971C81.0503 21.5629 81.261 20.9694 81.5483 20.4353C82.0079 19.6242 82.6207 18.9911 83.3868 18.5362V18.5559Z" fill="#EE7628"/>
<path d="M106.33 14.3423C104.377 14.3423 103.036 17.1712 102.557 18.1801L102.691 16.7755C102.768 16.004 102.634 15.4105 102.289 15.0149C101.944 14.6192 101.427 14.4214 100.719 14.4214C100.01 14.4214 99.4547 14.6192 99.0334 15.0149C98.6121 15.4105 98.3631 16.004 98.2865 16.7755L96.8885 30.9001C96.8118 31.6717 96.9459 32.2651 97.3098 32.6806C97.6737 33.096 98.2099 33.2938 98.9759 33.2938C99.742 33.2938 100.317 33.096 100.738 32.6806C101.159 32.2651 101.408 31.6717 101.485 30.9001L102.251 23.1652C102.385 21.7409 102.71 20.4155 103.534 19.644C104.357 18.8527 104.779 18.7142 105.334 18.3977C106.177 17.9031 106.809 17.547 107.173 16.9733C107.537 16.3997 107.786 15.0545 107.517 14.7577C107.249 14.4412 106.866 14.3621 106.349 14.3621L106.33 14.3423Z" fill="#EE7628"/>
<path d="M119.985 15.1928C119.698 14.8961 119.276 14.7378 118.683 14.7378H116.633L117.17 10.1681C117.246 9.39656 117.112 8.80308 116.767 8.40744C116.423 8.01179 115.887 7.81396 115.159 7.81396C114.431 7.81396 113.856 8.01179 113.416 8.40744C112.976 8.80308 112.727 9.39656 112.65 10.1681L112.114 14.7378H110.831C110.256 14.7378 109.796 14.8961 109.452 15.1928C109.107 15.4895 108.915 15.9247 108.858 16.4984C108.801 17.0523 108.915 17.4678 109.203 17.7843C109.49 18.1008 109.911 18.2591 110.486 18.2591H111.769L110.582 31.2957C110.505 32.0672 110.639 32.6607 110.984 33.0563C111.329 33.4519 111.865 33.6498 112.592 33.6498C113.32 33.6498 113.895 33.4519 114.335 33.0563C114.776 32.6607 115.025 32.0672 115.101 31.2957L115.14 30.9396L116.27 18.2393H118.319C118.893 18.2393 119.353 18.081 119.698 17.7645C120.042 17.448 120.234 17.0326 120.291 16.4787C120.349 15.905 120.234 15.4698 119.947 15.173L119.985 15.1928Z" fill="#EE7628"/>
<path d="M138.619 17.369L138.926 17.7053L139.5 17.1514L137.834 15.2523L137.259 15.8062L137.566 16.1425L136.876 16.7755C136.723 16.5975 136.57 16.4392 136.398 16.2612C135.344 15.2523 134.099 14.5796 132.759 14.2433V13.1553H133.582V11.6519H129.024V13.1553H129.848V13.9862C127.435 14.184 125.003 15.3512 123.126 17.4283C119.429 21.5628 119.353 27.7152 122.992 31.1969C126.63 34.6786 132.567 34.1444 136.283 30.0297C139.404 26.548 139.921 21.6222 137.834 18.0811L138.638 17.3294L138.619 17.369ZM133.467 27.3789C131.342 29.7527 127.914 30.0495 125.826 28.0515C123.739 26.0534 123.777 22.5124 125.903 20.1385C128.028 17.7646 131.457 17.4679 133.544 19.4659C135.631 21.4639 135.593 25.005 133.467 27.3789Z" fill="#EE7628"/>
<path d="M132.644 20.7517L128.68 23.4026C128.45 23.6004 128.297 23.8971 128.297 24.2532C128.297 24.8664 128.775 25.3808 129.388 25.3808C129.695 25.3808 129.982 25.2423 130.173 25.0247L132.644 20.7517Z" fill="#EE7628"/>
<path d="M5.07713 14.1245H4.98137C4.64291 14.1245 4.36853 14.4079 4.36853 14.7575V14.7773C4.36853 15.1269 4.64291 15.4104 4.98137 15.4104H5.07713C5.41559 15.4104 5.68997 15.1269 5.68997 14.7773V14.7575C5.68997 14.4079 5.41559 14.1245 5.07713 14.1245Z" fill="url(#paint0_linear_737_152)"/>
<path d="M10.2862 24.4707H10.1713C9.83285 24.4707 9.55847 24.7541 9.55847 25.1037V25.1235C9.55847 25.4731 9.83285 25.7566 10.1713 25.7566H10.2862C10.6247 25.7566 10.8991 25.4731 10.8991 25.1235V25.1037C10.8991 24.7541 10.6247 24.4707 10.2862 24.4707Z" fill="url(#paint1_linear_737_152)"/>
<path d="M17.6021 10.9396C18.1957 11.2561 18.7511 11.6913 19.3065 12.1661C19.5172 12.3442 19.9002 12.5816 19.9002 12.5816C20.2066 12.7596 20.5705 12.8585 20.9344 12.8585C22.0643 12.8585 22.8687 11.7507 22.8304 10.7814C22.8112 10.267 22.5814 9.67354 22.275 9.25811C20.7429 7.27987 18.234 6.44901 15.9167 6.3501H15.8784H4.27276C3.92804 6.3501 3.65992 6.64683 3.65992 6.98313C3.65992 7.33922 3.94719 7.63595 4.27276 7.63595H6.78158C7.1263 7.63595 7.39442 7.93269 7.39442 8.26899C7.39442 8.62507 7.10715 8.92181 6.78158 8.92181H2.24272C1.898 8.92181 1.62988 9.21854 1.62988 9.55485C1.62988 9.91093 1.91715 10.2077 2.24272 10.2077H8.6201C8.96482 10.2077 9.23294 10.5044 9.23294 10.8407V10.8803C9.23294 11.2363 8.94567 11.5133 8.6201 11.5133H7.06885C6.72412 11.5133 6.45601 11.81 6.45601 12.1463C6.45601 12.5024 6.74328 12.7992 7.06885 12.7992H9.99899C10.3437 12.7992 10.6118 13.0959 10.6118 13.4322C10.6118 13.8081 10.3246 14.1048 9.99899 14.1048H6.70497C6.36025 14.1048 6.09213 14.4015 6.09213 14.7378C6.09213 15.0939 6.3794 15.3907 6.70497 15.3907H7.85405C8.19877 15.3907 8.46689 15.6874 8.46689 16.0237C8.46689 16.3996 8.17962 16.6963 7.85405 16.6963H5.46014C5.11542 16.6963 4.8473 16.993 4.8473 17.3293C4.8473 17.6854 5.11542 17.9624 5.46014 17.9821H8.67755C9.02228 17.9821 9.2904 18.2789 9.2904 18.6152C9.2904 18.9713 9.00313 19.268 8.67755 19.268H7.03054C6.68582 19.268 6.4177 19.5647 6.4177 19.901C6.4177 20.2571 6.70497 20.5539 7.03054 20.5539H10.0181C10.3629 20.5539 10.631 20.8506 10.631 21.1869C10.631 21.543 10.3437 21.8397 10.0181 21.8397H4.82815C4.48342 21.8397 4.21531 22.1364 4.21531 22.4727C4.21531 22.8288 4.50258 23.1256 4.82815 23.1256H13.159C13.5037 23.1256 13.7718 23.4223 13.7718 23.7586C13.7718 24.1345 13.4845 24.4312 13.159 24.4312H11.8567C11.5119 24.4312 11.2438 24.7279 11.2438 25.0642C11.2438 25.4203 11.5119 25.7171 11.8567 25.7171H14.6145C14.9592 25.7171 15.2273 26.0138 15.2273 26.3501C15.2273 26.726 14.94 27.0029 14.6145 27.0029H5.86232C5.51759 27.0029 5.24948 27.2997 5.24948 27.636C5.24948 27.992 5.53674 28.2888 5.86232 28.2888H9.46276C9.80748 28.2888 10.0756 28.5855 10.0756 28.9218C10.0756 29.2779 9.78833 29.5746 9.46276 29.5746H3.50671C3.16199 29.5746 2.89387 29.8714 2.89387 30.2274C2.89387 30.5835 3.18114 30.8803 3.50671 30.8803H11.5311C11.8758 30.8803 12.1439 31.177 12.1439 31.5133C12.1439 31.8694 11.8567 32.1661 11.5311 32.1661H7.96896C7.62423 32.1661 7.35612 32.4629 7.35612 32.7992C7.35612 33.1552 7.64339 33.452 7.96896 33.452H12.7568C12.7568 33.452 12.7951 33.452 12.8142 33.452C19.4597 33.3531 21.9111 30.6231 22.1792 27.082C22.4282 23.8377 21.1259 21.7804 20.0726 20.3956C19.0001 19.0108 16.204 15.8259 15.5912 15.0148C14.8251 14.0257 13.9442 12.6013 14.8251 11.3353C15.5146 10.3461 16.7402 10.4055 17.6404 10.8803L17.6021 10.9396Z" fill="url(#paint2_linear_737_152)"/>
</g>
<defs>
<linearGradient id="paint0_linear_737_152" x1="-0.534198" y1="14.6982" x2="26.6226" y2="15.0319" gradientUnits="userSpaceOnUse">
<stop stop-color="#F6C945"/>
<stop offset="1" stop-color="#EE7628"/>
</linearGradient>
<linearGradient id="paint1_linear_737_152" x1="-0.649159" y1="24.9653" x2="26.4885" y2="25.3175" gradientUnits="userSpaceOnUse">
<stop stop-color="#F6C945"/>
<stop offset="1" stop-color="#EE7628"/>
</linearGradient>
<linearGradient id="paint2_linear_737_152" x1="-0.591666" y1="19.7626" x2="26.5651" y2="20.0963" gradientUnits="userSpaceOnUse">
<stop stop-color="#F6C945"/>
<stop offset="1" stop-color="#EE7628"/>
</linearGradient>
<clipPath id="clip0_737_152">
<rect width="139" height="40" fill="white" transform="translate(0.5)"/>
</clipPath>
</defs>
</svg>
